<svg width="1600" height="1100" viewBox="0 0 1600 1100" fill="none" xmlns="http://www.w3.org/2000/svg">
  <defs>
    <linearGradient id="bg" x1="220" y1="120" x2="1390" y2="960" gradientUnits="userSpaceOnUse">
      <stop stop-color="#0B1220"/>
      <stop offset="0.52" stop-color="#182238"/>
      <stop offset="1" stop-color="#27304A"/>
    </linearGradient>
    <radialGradient id="glowA" cx="0" cy="0" r="1" gradientUnits="userSpaceOnUse" gradientTransform="translate(1180 240) rotate(131.194) scale(494.709 372.906)">
      <stop stop-color="#B6D0FF" stop-opacity="0.62"/>
      <stop offset="1" stop-color="#B6D0FF" stop-opacity="0"/>
    </radialGradient>
    <radialGradient id="glowB" cx="0" cy="0" r="1" gradientUnits="userSpaceOnUse" gradientTransform="translate(380 780) rotate(37.508) scale(474.925 330.879)">
      <stop stop-color="#F4D2A2" stop-opacity="0.34"/>
      <stop offset="1" stop-color="#F4D2A2" stop-opacity="0"/>
    </radialGradient>
    <linearGradient id="panel" x1="360" y1="198" x2="1230" y2="900" gradientUnits="userSpaceOnUse">
      <stop stop-color="white" stop-opacity="0.12"/>
      <stop offset="1" stop-color="white" stop-opacity="0.04"/>
    </linearGradient>
    <linearGradient id="ring" x1="604" y1="333" x2="999" y2="749" gradientUnits="userSpaceOnUse">
      <stop stop-color="#F4D2A2"/>
      <stop offset="0.44" stop-color="#9FC2FF"/>
      <stop offset="1" stop-color="#85E0C0"/>
    </linearGradient>
    <linearGradient id="line" x1="543" y1="516" x2="1057" y2="516" gradientUnits="userSpaceOnUse">
      <stop stop-color="#BFD3FF" stop-opacity="0.25"/>
      <stop offset="0.5" stop-color="#F4D2A2" stop-opacity="0.75"/>
      <stop offset="1" stop-color="#92E2C8" stop-opacity="0.25"/>
    </linearGradient>
    <filter id="blur" x="-200" y="-200" width="2000" height="1500" filterUnits="userSpaceOnUse" color-interpolation-filters="sRGB">
      <feGaussianBlur stdDeviation="80"/>
    </filter>
  </defs>

  <rect width="1600" height="1100" rx="52" fill="url(#bg)"/>
  <g filter="url(#blur)">
    <ellipse cx="1160" cy="232" rx="250" ry="164" fill="url(#glowA)"/>
    <ellipse cx="356" cy="796" rx="244" ry="154" fill="url(#glowB)"/>
  </g>

  <g opacity="0.36">
    <circle cx="218" cy="116" r="2.4" fill="white"/>
    <circle cx="286" cy="160" r="1.8" fill="white"/>
    <circle cx="1362" cy="126" r="2.4" fill="white"/>
    <circle cx="1274" cy="184" r="1.8" fill="white"/>
    <circle cx="221" cy="942" r="2.4" fill="white"/>
    <circle cx="1318" cy="902" r="2.4" fill="white"/>
    <circle cx="1188" cy="808" r="1.8" fill="white"/>
    <circle cx="426" cy="248" r="1.8" fill="white"/>
  </g>

  <rect x="224" y="150" width="1152" height="800" rx="46" fill="url(#panel)" stroke="white" stroke-opacity="0.1"/>

  <g opacity="0.86">
    <path d="M354 267H468" stroke="white" stroke-opacity="0.44" stroke-width="10" stroke-linecap="round"/>
    <circle cx="320" cy="268" r="28" stroke="white" stroke-opacity="0.48" stroke-width="10"/>
    <path d="M1268 246C1287 246 1303 262 1303 281C1303 295 1294 307 1282 312" stroke="white" stroke-opacity="0.46" stroke-width="10" stroke-linecap="round"/>
    <path d="M1272 347H1314" stroke="white" stroke-opacity="0.34" stroke-width="10" stroke-linecap="round"/>
    <path d="M1288 327V367" stroke="white" stroke-opacity="0.34" stroke-width="10" stroke-linecap="round"/>
  </g>

  <g opacity="0.92">
    <circle cx="800" cy="548" r="206" stroke="url(#ring)" stroke-width="16"/>
    <circle cx="800" cy="548" r="148" stroke="white" stroke-opacity="0.16" stroke-width="2" stroke-dasharray="6 12"/>
    <circle cx="800" cy="548" r="98" fill="white" fill-opacity="0.06" stroke="white" stroke-opacity="0.1"/>

    <path d="M743 547C743 515 769 489 801 489C833 489 859 515 859 547C859 579 833 605 801 605C769 605 743 579 743 547Z" fill="white" fill-opacity="0.06"/>
    <path d="M764 557C790 535 812 531 840 545" stroke="white" stroke-opacity="0.92" stroke-width="8" stroke-linecap="round"/>
    <path d="M772 588C794 571 817 568 833 575" stroke="white" stroke-opacity="0.68" stroke-width="7" stroke-linecap="round"/>

    <circle cx="598" cy="470" r="18" fill="#F4D2A2"/>
    <circle cx="1000" cy="470" r="18" fill="#B6D0FF"/>
    <circle cx="654" cy="712" r="18" fill="#9BE0C8"/>
    <circle cx="946" cy="712" r="18" fill="#D7B7FF"/>

    <path d="M598 470L743 526" stroke="url(#line)" stroke-width="4"/>
    <path d="M1000 470L859 525" stroke="url(#line)" stroke-width="4"/>
    <path d="M654 712L761 600" stroke="url(#line)" stroke-width="4"/>
    <path d="M946 712L843 602" stroke="url(#line)" stroke-width="4"/>
  </g>

  <g opacity="0.94">
    <rect x="458" y="792" width="684" height="82" rx="41" fill="white" fill-opacity="0.06" stroke="white" stroke-opacity="0.1"/>
    <rect x="486" y="820" width="178" height="16" rx="8" fill="#F4D2A2" fill-opacity="0.9"/>
    <rect x="690" y="820" width="194" height="16" rx="8" fill="#B6D0FF" fill-opacity="0.6"/>
    <rect x="910" y="820" width="124" height="16" rx="8" fill="#9BE0C8" fill-opacity="0.72"/>
  </g>

  <g opacity="0.88">
    <text x="318" y="736" fill="white" fill-opacity="0.44" font-family="system-ui, -apple-system, BlinkMacSystemFont, 'Segoe UI', sans-serif" font-size="30" letter-spacing="0.3em">AI CLIMATE ANALYSIS</text>
    <text x="318" y="815" fill="white" font-family="system-ui, -apple-system, BlinkMacSystemFont, 'Segoe UI', sans-serif" font-size="108" font-weight="700" letter-spacing="-0.06em">Weather.</text>
    <text x="318" y="905" fill="white" font-family="system-ui, -apple-system, BlinkMacSystemFont, 'Segoe UI', sans-serif" font-size="108" font-weight="700" letter-spacing="-0.06em">Skin.</text>
    <text x="752" y="905" fill="white" fill-opacity="0.72" font-family="system-ui, -apple-system, BlinkMacSystemFont, 'Segoe UI', sans-serif" font-size="108" font-weight="700" letter-spacing="-0.06em">Guidance.</text>
  </g>
</svg>
